<svg width="64" height="43" viewBox="0 0 64 43" fill="none" xmlns="http://www.w3.org/2000/svg">
<path id="quotes" d="M27.5269 14.3333C27.5269 10.4803 26.1505 7.16667 23.3978 4.39247C20.7981 1.46416 17.5866 0 13.7634 0C9.94026 0 6.65233 1.46416 3.89964 4.39247C1.29988 7.16667 0 10.4803 0 14.3333C0 17.5699 0.994025 20.4212 2.98208 22.8871C4.97013 25.3531 7.49343 26.9713 10.552 27.7419C10.399 29.7455 9.63441 31.8262 8.25806 33.9839C7.03465 36.1416 5.6583 37.914 4.12903 39.3011L8.25806 43C13.9164 39.6093 18.5042 35.448 22.0215 30.5161C25.6918 25.5842 27.5269 20.19 27.5269 14.3333ZM64 14.3333C64 10.4803 62.6237 7.16667 59.871 4.39247C57.1183 1.46416 53.8303 0 50.0072 0C46.184 0 42.8961 1.46416 40.1434 4.39247C37.5436 7.16667 36.2437 10.4803 36.2437 14.3333C36.2437 17.5699 37.2378 20.4212 39.2258 22.8871C41.2139 25.3531 43.7372 26.9713 46.7957 27.7419C46.4898 29.7455 45.6487 31.8262 44.2724 33.9839C43.049 36.1416 41.6726 37.914 40.1434 39.3011L44.7312 43C50.3895 39.6093 54.9773 35.448 58.4946 30.5161C62.1649 25.5842 64 20.19 64 14.3333Z" fill="#253993"/>
</svg>
