<svg width="24" height="24" viewBox="0 0 24 24" fill="none" xmlns="http://www.w3.org/2000/svg">
<g id="user-tie">
<path id="Vector" d="M17.5 6C17.5 9.31406 14.8141 12 11.5 12C8.18594 12 5.5 9.31406 5.5 6C5.5 2.68641 8.18594 0 11.5 0C14.8141 0 17.5 2.68641 17.5 6ZM10.8016 16.8375L9.25 14.25H13.75L12.1984 16.8375L13.7594 22.6453L15.6109 15.0891C19.2297 15.6516 22 18.7828 22 22.5609C22 23.3531 21.3531 24 20.5609 24H2.44C1.64453 24 1 23.3531 1 22.5609C1 18.7828 3.76984 15.6516 7.38906 15.0891L9.24063 22.6453L10.8016 16.8375Z" fill="#253993"/>
</g>
</svg>
