<svg width="24" height="24" viewBox="0 0 24 24" fill="none" xmlns="http://www.w3.org/2000/svg">
<g id="vault">
<path id="Vector" d="M6 11C6 9.15833 7.49167 7.66667 9.33333 7.66667C11.175 7.66667 12.6667 9.15833 12.6667 11C12.6667 12.8417 11.175 14.3333 9.33333 14.3333C7.49167 14.3333 6 12.8417 6 11ZM21.3333 1C22.8042 1 24 2.19375 24 3.66667V18.3333C24 19.8042 22.8042 21 21.3333 21H20.6667L20 22.3333H17.3333L16.6667 21H7.33333L6.66667 22.3333H4L3.33333 21H2.66667C1.19375 21 0 19.8042 0 18.3333V3.66667C0 2.19375 1.19375 1 2.66667 1H21.3333ZM9.33333 17.6667C13.0167 17.6667 16 14.6833 16 11C16 7.31667 13.0167 4.33333 9.33333 4.33333C5.65 4.33333 2.66667 7.31667 2.66667 11C2.66667 14.6833 5.65 17.6667 9.33333 17.6667ZM20 10.2208C20.775 9.94583 21.3333 9.20417 21.3333 8.33333C21.3333 7.22917 20.4375 6.33333 19.3333 6.33333C18.2292 6.33333 17.3333 7.22917 17.3333 8.33333C17.3333 9.20417 17.8917 9.94583 18.6667 10.2208V15C18.6667 15.3667 18.9667 15.6667 19.3333 15.6667C19.7 15.6667 20 15.3667 20 15V10.2208Z" fill="#253993"/>
</g>
</svg>
