<svg width="24" height="24" viewBox="0 0 24 24" fill="none" xmlns="http://www.w3.org/2000/svg">
<g id="boxes-stacked">
<path id="Vector" d="M6.66667 3C6.66667 1.89542 7.5625 1 8.66667 1H10.6667V4.33333C10.6667 4.70167 10.9667 5 11.3333 5H12.6667C13.0333 5 13.3333 4.70167 13.3333 4.33333V1H15.3333C16.4375 1 17.3333 1.89542 17.3333 3V8.33333C17.3333 9.4375 16.4375 10.3333 15.3333 10.3333H8.66667C7.5625 10.3333 6.66667 9.4375 6.66667 8.33333V3ZM4 13V16.3333C4 16.7 4.3 17 4.66667 17H6C6.36667 17 6.66667 16.7 6.66667 16.3333V13H8.66667C9.77083 13 10.6667 13.8958 10.6667 15V20.3333C10.6667 21.4375 9.77083 22.3333 8.66667 22.3333H2C0.895417 22.3333 0 21.4375 0 20.3333V15C0 13.8958 0.895417 13 2 13H4ZM17.3333 13V16.3333C17.3333 16.7 17.6333 17 18 17H19.3333C19.7 17 20 16.7 20 16.3333V13H22C23.1042 13 24 13.8958 24 15V20.3333C24 21.4375 23.1042 22.3333 22 22.3333H15.3333C14.2292 22.3333 13.3333 21.4375 13.3333 20.3333V15C13.3333 13.8958 14.2292 13 15.3333 13H17.3333Z" fill="#253993"/>
</g>
</svg>
