<svg width="24" height="24" viewBox="0 0 24 24" fill="none" xmlns="http://www.w3.org/2000/svg">
<g id="gear" clip-path="url(#clip0_2889_970)">
<path id="Vector" d="M23.2451 7.80938C23.3998 8.2125 23.2686 8.66719 22.9498 8.9625L20.9201 10.8094C20.9717 11.1984 20.9998 11.5969 20.9998 12C20.9998 12.4031 20.9717 12.8016 20.9201 13.1906L22.9498 15.0375C23.2686 15.3328 23.3998 15.7875 23.2451 16.1906C23.0389 16.7484 22.7904 17.2875 22.5092 17.7984L22.2889 18.1781C21.9795 18.6937 21.6326 19.1812 21.2529 19.6453C20.9717 19.9781 20.517 20.0953 20.1045 19.9641L17.4936 19.1297C16.8654 19.6125 16.1295 20.0156 15.4311 20.325L14.8451 23.0016C14.7514 23.4234 14.4232 23.7234 13.992 23.8359C13.3451 23.9438 12.6795 24 11.9576 24C11.3201 24 10.6545 23.9438 10.0076 23.8359C9.57638 23.7234 9.24825 23.4234 9.1545 23.0016L8.56856 20.325C7.82794 20.0156 7.13419 19.6125 6.50606 19.1297L3.897 19.9641C3.48262 20.0953 3.02559 19.9781 2.74809 19.6453C2.36794 19.1812 2.02106 18.6937 1.71169 18.1781L1.49231 17.7984C1.20778 17.2875 0.960281 16.7484 0.752625 16.1906C0.60075 15.7875 0.728719 15.3328 1.05028 15.0375L3.07809 13.1906C3.02653 12.8016 2.99981 12.4031 2.99981 12C2.99981 11.5969 3.02653 11.1984 3.07809 10.8094L1.05028 8.9625C0.728719 8.66719 0.60075 8.21719 0.752625 7.80938C0.960281 7.25156 1.20825 6.7125 1.49231 6.20156L1.71122 5.82187C2.02106 5.30625 2.36794 4.81875 2.74809 4.35703C3.02559 4.02187 3.48262 3.90562 3.897 4.03781L6.50606 4.87031C7.13419 4.38562 7.82794 3.9825 8.56856 3.67641L9.1545 0.999844C9.24825 0.574219 9.57638 0.23625 10.0076 0.164531C10.6545 0.0562969 11.3201 0 11.9998 0C12.6795 0 13.3451 0.0562969 13.992 0.164531C14.4232 0.23625 14.7514 0.574219 14.8451 0.999844L15.4311 3.67641C16.1295 3.9825 16.8654 4.38562 17.4936 4.87031L20.1045 4.03781C20.517 3.90562 20.9717 4.02187 21.2529 4.35703C21.6326 4.81875 21.9795 5.30625 22.2889 5.82187L22.5092 6.20156C22.7904 6.7125 23.0389 7.25156 23.2451 7.80938ZM11.9998 15.75C14.0717 15.75 15.7498 14.0719 15.7498 11.9578C15.7498 9.92813 14.0717 8.20781 11.9998 8.20781C9.92794 8.20781 8.24981 9.92813 8.24981 11.9578C8.24981 14.0719 9.92794 15.75 11.9998 15.75Z" fill="#253993"/>
</g>
<defs>
<clipPath id="clip0_2889_970">
<rect width="24" height="24" fill="white"/>
</clipPath>
</defs>
</svg>
