<svg width="24" height="24" viewBox="0 0 24 24" fill="none" xmlns="http://www.w3.org/2000/svg">
<g id="box-open">
<path id="Vector" d="M2.82135 3.25244L12.0002 4.36619L21.1802 3.25244C21.4315 3.22094 21.6752 3.35219 21.7915 3.57944L23.3552 6.70619C23.689 7.37744 23.3327 8.19119 22.609 8.39744L16.4852 10.1487C15.964 10.2949 15.4052 10.0774 15.1277 9.57869L12.0002 4.36619L8.87273 9.57869C8.59523 10.0774 8.03648 10.2949 7.51523 10.1487L1.39035 8.39744C0.668102 8.19119 0.31084 7.37744 0.646727 6.70619L2.21048 3.57944C2.3241 3.35219 2.56898 3.22094 2.82135 3.25244ZM12.0415 6.79994L14.0965 10.2274C14.6552 11.1574 15.769 11.5662 16.8152 11.2999L21.6002 9.93494V16.1937C21.6002 17.0187 21.0377 17.7387 20.2352 17.9412L12.5815 19.8537C12.199 19.9512 11.8015 19.9512 11.419 19.8537L3.76523 17.9412C2.96235 17.7387 2.40023 17.0187 2.40023 16.1937V9.93494L7.18523 11.2999C8.23148 11.5662 9.34523 11.1574 9.90398 10.2274L11.959 6.79994H12.0415Z" fill="#253993"/>
</g>
</svg>
