<svg width="24" height="24" viewBox="0 0 24 24" fill="none" xmlns="http://www.w3.org/2000/svg">
<g id="rotate">
<path id="Vector" d="M21.0891 1.8731L18.8156 4.14794C16.9922 2.49326 14.5969 1.49997 12 1.49997C7.57031 1.49997 3.68391 4.32841 2.32406 8.5406C2.06916 9.32857 2.50205 10.1756 3.29016 10.4287C4.08563 10.6865 4.92422 10.25 5.17922 9.46357C6.13594 6.49216 8.87813 4.49997 12 4.49997C13.7794 4.49997 15.4219 5.16466 16.6969 6.27185L14.5828 8.34372C13.8328 9.13122 14.3812 10.4718 15.4875 10.5H22.3734C22.8609 10.4859 23.25 10.0922 23.25 9.60466V2.76747C23.25 1.64013 21.8859 1.07576 21.0891 1.8731ZM20.7094 13.575C19.9153 13.3201 19.0744 13.7537 18.8203 14.5401C17.8641 17.5078 15.1219 19.5 12 19.5C10.2206 19.5 8.57812 18.8353 7.30313 17.7281L9.375 15.6562C10.1672 14.8687 9.61875 13.5281 8.5125 13.5H1.62469C1.14 13.514 0.75 13.9078 0.75 14.3953V21.2343C0.75 22.3612 2.11266 22.9256 2.90953 22.1283L5.18297 19.8534C7.00781 21.5062 9.40313 22.5 11.9578 22.5C16.3852 22.5 20.2734 19.6715 21.6328 15.4593C21.9328 14.6718 21.4969 13.7859 20.7094 13.575Z" fill="#253993"/>
</g>
</svg>
