<svg width="24" height="24" viewBox="0 0 24 24" fill="none" xmlns="http://www.w3.org/2000/svg">
<g id="building-columns" clip-path="url(#clip0_2889_1005)">
<path id="Vector" d="M11.4096 0.121271C11.7846 -0.0404238 12.2158 -0.0404238 12.5908 0.121271L23.0908 4.62141C23.7471 4.90313 24.1127 5.60626 23.9674 6.30001C23.8267 6.99844 23.2127 7.45782 22.458 7.50001V7.87501C22.458 8.49844 21.9986 9.00001 21.333 9.00001H2.583C2.00362 9.00001 1.458 8.49844 1.458 7.87501V7.50001C0.788152 7.45782 0.173996 6.99844 0.0307835 6.30001C-0.11241 5.60626 0.254668 4.90313 0.90909 4.62141L11.4096 0.121271ZM12.0002 6.00001C12.8299 6.00001 13.5002 5.32969 13.5002 4.50001C13.5002 3.67172 12.8299 3.00001 12.0002 3.00001C11.1705 3.00001 10.5002 3.67172 10.5002 4.50001C10.5002 5.32969 11.1705 6.00001 12.0002 6.00001ZM5.958 19.5H7.833V10.5H10.833V19.5H13.1252V10.5H16.1252V19.5H18.0002V10.5H21.0002V19.7016C21.0283 19.7156 21.0564 19.6922 21.0846 19.7531L23.3346 21.2531C23.883 21.6188 24.1267 22.3031 23.9346 22.9359C23.7424 23.5688 23.1611 24 22.5002 24H1.458C0.839246 24 0.256027 23.5688 0.064496 22.9359C-0.127082 22.3031 0.118074 21.6188 0.668152 21.2531L2.91815 19.7531C2.94487 19.6922 2.97253 19.7156 2.958 19.7016V10.5H5.958V19.5Z" fill="#253993"/>
</g>
<defs>
<clipPath id="clip0_2889_1005">
<rect width="24" height="24" fill="white"/>
</clipPath>
</defs>
</svg>
