<svg width="24" height="24" viewBox="0 0 24 24" fill="none" xmlns="http://www.w3.org/2000/svg">
<g id="handshake-angle" clip-path="url(#clip0_2889_978)">
<path id="Vector" d="M18.3 9.1663H12.6L12.6 11.111C12.6 12.5233 11.5845 13.811 10.1794 13.9524C8.56352 14.1149 7.20002 12.8492 7.20002 11.2663V6.74005L6.28089 7.29242C4.62001 8.29255 3.60151 10.0888 3.60151 12.0313L0.601515 13.7675C0.0296396 14.0957 -0.17211 14.8318 0.16089 15.4037L3.16089 20.6012C3.4937 21.173 4.22964 21.3699 4.80151 21.0418L8.67901 18.8012H13.8015C15.1234 18.8012 16.2015 17.723 16.2015 16.4012C17.1956 16.4012 18.0015 15.5953 18.0015 14.6012V12.8H18.3015C18.7984 12.8 19.2015 12.3969 19.2015 11.9L19.2015 10.1C19.2 9.6013 18.7988 9.1663 18.3 9.1663ZM23.8388 7.7938L20.8406 2.5963C20.5078 2.02442 19.7719 1.82755 19.2 2.15567L15.3225 4.3963H12.9761C11.5568 4.3963 10.1663 4.79417 8.95989 5.54492C8.61376 5.76505 8.40001 6.14755 8.40001 6.56005L8.4 11.3C8.4 12.1299 9.0705 12.8 9.9 12.8C10.7299 12.8 11.4 12.1295 11.4 11.3V7.9663H18.3C19.4599 7.9663 20.4 8.90642 20.4 10.0663V11.135L23.4 9.40067C23.9738 9.10255 24.1688 8.36755 23.8388 7.7938Z" fill="#253993"/>
</g>
<defs>
<clipPath id="clip0_2889_978">
<rect width="24" height="24" fill="white"/>
</clipPath>
</defs>
</svg>
