<svg width="24" height="24" viewBox="0 0 24 24" fill="none" xmlns="http://www.w3.org/2000/svg">
<g id="basket-shopping">
<path id="Vector" d="M7.15417 8.96249H16.8458L13.4458 2.46124C13.1917 1.97124 13.3833 1.36753 13.8708 1.11274C14.3625 0.857946 14.9667 1.04861 15.2208 1.53874L19.1 8.96249H22.6667C23.4042 8.96249 24 9.59582 24 10.2958C24 11.0708 23.4042 11.6292 22.6667 11.6292L20.5042 20.3125C20.1708 21.5 19.1417 22.3333 17.9167 22.3333H6.04583C4.85833 22.3333 3.79167 21.5 3.495 20.3125L1.33333 11.6292C0.597083 11.6292 0 11.0708 0 10.2958C0 9.59582 0.597083 8.96249 1.33333 8.96249H4.9L8.77917 1.53874C9.03333 1.04861 9.6375 0.857946 10.1292 1.11274C10.6167 1.36753 10.8083 1.97124 10.5542 2.46124L7.15417 8.96249ZM7.9625 13.6292C7.9625 13.2958 7.7 12.9625 7.29583 12.9625C6.96667 12.9625 6.62917 13.2958 6.62917 13.6292V17.6292C6.62917 18.0333 6.96667 18.2958 7.29583 18.2958C7.7 18.2958 7.9625 18.0333 7.9625 17.6292V13.6292ZM11.2958 13.6292V17.6292C11.2958 18.0333 11.6333 18.2958 11.9625 18.2958C12.3667 18.2958 12.6667 18.0333 12.6667 17.6292V13.6292C12.6667 13.2958 12.3667 12.9625 11.9625 12.9625C11.6333 12.9625 11.2958 13.2958 11.2958 13.6292ZM17.3333 13.6292C17.3333 13.2958 17.0333 12.9625 16.6667 12.9625C16.3 12.9625 16 13.2958 16 13.6292V17.6292C16 18.0333 16.3 18.2958 16.6667 18.2958C17.0333 18.2958 17.3333 18.0333 17.3333 17.6292V13.6292Z" fill="#253993"/>
</g>
</svg>
